<svg version="1.1" xmlns="http://www.w3.org/2000/svg" xmlns:xlink="http://www.w3.org/1999/xlink" width="100%" height="100%" viewBox="50 0 700 490"><g data-paper-data="{&quot;description&quot;:&quot;Logo for HansungMating\n======================\n\nThis logo was generated by MarkMaker at http://emblemmatic.org/markmaker/ and may be composed of elements designed by others.\n\nThe font is Palanquin Dark Medium designed by Pria Ravichandran and released under the OFL license via Google Fonts: https://www.google.com/fonts/specimen/Palanquin%20Dark. The font includes this copyright statement: Copyright 2014 Pria Ravichandran (pria.ravichandran@gmail.com)\n\nMarkMaker uses semantic data from the Princeton University WordNet database http://wordnet.princeton.edu and font descriptions from Google Fonts https://www.google.com/fonts.&quot;}" fill="#FFFFFF" fill-rule="nonzero" stroke="none" stroke-width="1" stroke-linecap="butt" stroke-linejoin="miter" stroke-miterlimit="10" stroke-dasharray="" stroke-dashoffset="0" font-family="none" font-weight="none" font-size="none" text-anchor="none" style="mix-blend-mode: normal"><g data-paper-data="{&quot;elementType&quot;:&quot;logo&quot;}"><g data-paper-data="{&quot;elementType&quot;:&quot;text&quot;}"><g data-paper-data="{&quot;baseline&quot;:71.60000000000001,&quot;elementType&quot;:&quot;row&quot;}"><g data-paper-data="{&quot;baselineProportion&quot;:0.7732181425485961,&quot;fontSize&quot;:100,&quot;baseline&quot;:71.60000000000001,&quot;elementType&quot;:&quot;word&quot;}"><path d="M56.91288,229.54545v13.63636h12.4053v-13.39962h6.91288v32.19697h-6.91288v-13.25758h-12.4053v13.25758h-6.91288v-32.19697z" data-paper-data="{&quot;elementType&quot;:&quot;letter&quot;,&quot;baseline&quot;:68.5,&quot;baselineProportion&quot;:1,&quot;fontSize&quot;:100}"></path><path d="M97.39583,238.35227c2.87247,0 5.23201,0.82071 7.0786,2.46212c1.84659,1.64141 2.76989,3.75631 2.76989,6.3447v14.82008h-3.40909l-1.51515,-1.89394c-0.78914,0.69444 -1.75979,1.27841 -2.91193,1.75189c-1.15215,0.47348 -2.32797,0.71023 -3.52746,0.71023c-2.84091,0 -4.94792,-0.70234 -6.32102,-2.10701c-1.37311,-1.40467 -2.05966,-3.24337 -2.05966,-5.5161c0,-2.39899 0.81282,-4.21402 2.43845,-5.44508c1.62563,-1.23106 3.74842,-1.84659 6.36837,-1.84659h3.92992c-0.06313,-0.97854 -0.40246,-1.75189 -1.01799,-2.32008c-0.61553,-0.56818 -1.42835,-0.85227 -2.43845,-0.85227c-0.97854,0 -2.06755,0.14205 -3.26705,0.42614c-1.19949,0.28409 -2.24116,0.63131 -3.125,1.04167l-1.84659,-5.49242c0.97854,-0.56818 2.38321,-1.05745 4.21402,-1.4678c1.83081,-0.41035 3.37753,-0.61553 4.64015,-0.61553zM95.88068,256.96023c0.72601,0 1.4678,-0.16572 2.22538,-0.49716c0.75758,-0.33144 1.48359,-0.81282 2.17803,-1.44413v-2.88826h-3.97727c-0.9154,0 -1.62563,0.26831 -2.13068,0.80492c-0.50505,0.53662 -0.75758,1.16793 -0.75758,1.89394c0,0.56818 0.23674,1.06534 0.71023,1.49148c0.47348,0.42614 1.05745,0.6392 1.75189,0.6392" data-paper-data="{&quot;elementType&quot;:&quot;letter&quot;,&quot;baseline&quot;:49.900000000000006,&quot;baselineProportion&quot;:0.9765166340508806,&quot;fontSize&quot;:100}"></path><path d="M132.10227,238.16288c3.15657,0 5.40562,0.90751 6.74716,2.72254c1.34154,1.81503 2.01231,4.06408 2.01231,6.74716v14.34659h-6.96023v-14.0625c0,-1.26263 -0.32355,-2.23327 -0.97064,-2.91193c-0.6471,-0.67866 -1.53883,-1.01799 -2.67519,-1.01799c-0.75758,0 -1.60196,0.19729 -2.53314,0.59186c-0.93119,0.39457 -1.77557,0.84438 -2.53314,1.34943v16.05114h-6.96023v-22.96402h3.59848l1.84659,2.32008c1.0101,-0.88384 2.30429,-1.63352 3.88258,-2.24905c1.57828,-0.61553 3.09343,-0.9233 4.54545,-0.9233z" data-paper-data="{&quot;elementType&quot;:&quot;letter&quot;,&quot;baseline&quot;:50.300000000000004,&quot;baselineProportion&quot;:1,&quot;fontSize&quot;:100}"></path><path d="M160.79545,247.44318c1.92551,0.69444 3.72475,1.64931 5.39773,2.86458c1.67298,1.21528 2.50947,2.83302 2.50947,4.85322c0,2.30429 -0.80492,4.11143 -2.41477,5.4214c-1.60985,1.30997 -3.99306,1.96496 -7.14962,1.96496c-0.97854,0 -2.35953,-0.22096 -4.14299,-0.66288c-1.78346,-0.44192 -3.25915,-1.1048 -4.42708,-1.98864l2.03598,-4.92424c1.04167,0.50505 2.12279,0.9154 3.24337,1.23106c1.12058,0.31566 2.09122,0.47348 2.91193,0.47348c0.94697,0 1.6572,-0.13415 2.13068,-0.40246c0.47348,-0.26831 0.71023,-0.59186 0.71023,-0.97064c0,-0.50505 -0.24463,-0.95486 -0.7339,-1.34943c-0.48927,-0.39457 -1.27052,-0.76547 -2.34375,-1.11269c-1.86237,-0.59975 -3.63005,-1.4678 -5.30303,-2.60417c-1.67298,-1.13636 -2.50947,-2.69886 -2.50947,-4.6875c0,-2.27273 0.8286,-4.0404 2.4858,-5.30303c1.6572,-1.26263 3.9536,-1.89394 6.8892,-1.89394c0.94697,0 2.23327,0.20518 3.8589,0.61553c1.62563,0.41035 3.03819,1.05745 4.23769,1.94129l-2.03598,4.92424c-1.04167,-0.50505 -2.05177,-0.90751 -3.0303,-1.20739c-0.97854,-0.29987 -1.95707,-0.44981 -2.93561,-0.44981c-0.75758,0 -1.32576,0.13415 -1.70455,0.40246c-0.37879,0.26831 -0.56818,0.60764 -0.56818,1.01799c0,0.31566 0.21307,0.60764 0.6392,0.87595c0.42614,0.26831 1.17582,0.59186 2.24905,0.97064z" data-paper-data="{&quot;elementType&quot;:&quot;letter&quot;,&quot;baseline&quot;:49.900000000000006,&quot;baselineProportion&quot;:0.9765166340508806,&quot;fontSize&quot;:100}"></path><path d="M186.88447,262.87879c-3.15657,0 -5.38984,-0.9154 -6.69981,-2.74621c-1.30997,-1.83081 -1.96496,-4.07197 -1.96496,-6.72348v-14.39394h7.00758v14.10985c0,1.26263 0.30777,2.23327 0.9233,2.91193c0.61553,0.67866 1.49148,1.01799 2.62784,1.01799c0.72601,0 1.52304,-0.1815 2.3911,-0.54451c0.86806,-0.36301 1.66509,-0.78125 2.3911,-1.25473v-16.24053h6.96023v22.96402h-3.59848l-1.75189,-2.17803c-1.0101,0.85227 -2.28062,1.57828 -3.81155,2.17803c-1.53093,0.59975 -3.02241,0.89962 -4.47443,0.89962z" data-paper-data="{&quot;elementType&quot;:&quot;letter&quot;,&quot;baseline&quot;:48.5,&quot;baselineProportion&quot;:0.9623015873015872,&quot;fontSize&quot;:100}"></path><path d="M225.71023,238.16288c3.15657,0 5.40562,0.90751 6.74716,2.72254c1.34154,1.81503 2.01231,4.06408 2.01231,6.74716v14.34659h-6.96023v-14.0625c0,-1.26263 -0.32355,-2.23327 -0.97064,-2.91193c-0.6471,-0.67866 -1.53883,-1.01799 -2.67519,-1.01799c-0.75758,0 -1.60196,0.19729 -2.53314,0.59186c-0.93119,0.39457 -1.77557,0.84438 -2.53314,1.34943v16.05114h-6.96023v-22.96402h3.59848l1.84659,2.32008c1.0101,-0.88384 2.30429,-1.63352 3.88258,-2.24905c1.57828,-0.61553 3.09343,-0.9233 4.54545,-0.9233z" data-paper-data="{&quot;elementType&quot;:&quot;letter&quot;,&quot;baseline&quot;:50.300000000000004,&quot;baselineProportion&quot;:1,&quot;fontSize&quot;:100}"></path><path d="M267.80303,239.0625v22.91667c0,2.96717 -0.98643,5.36616 -2.95928,7.19697c-1.97285,1.83081 -4.99527,2.74621 -9.06723,2.74621c-0.97854,0 -2.41477,-0.22096 -4.30871,-0.66288c-1.89394,-0.44192 -3.48801,-1.1048 -4.7822,-1.98864l2.08333,-4.87689c1.45202,0.69444 2.68308,1.1916 3.69318,1.49148c1.0101,0.29987 2.06755,0.44981 3.17235,0.44981c1.70455,0 2.99874,-0.38668 3.88258,-1.16004c0.88384,-0.77336 1.32576,-1.82292 1.32576,-3.14867v-1.04167c-0.88384,0.47348 -1.83081,0.84438 -2.84091,1.11269c-1.0101,0.26831 -2.00442,0.40246 -2.98295,0.40246c-3.47222,0 -6.10795,-1.15215 -7.9072,-3.45644c-1.79924,-2.30429 -2.69886,-5.17677 -2.69886,-8.61742c0,-3.47222 0.93119,-6.38415 2.79356,-8.7358c1.86237,-2.35164 4.57702,-3.52746 8.14394,-3.52746c1.16793,0 2.44634,0.26042 3.83523,0.78125c1.38889,0.52083 2.58838,1.1916 3.59848,2.01231l1.4678,-1.89394zM251.5625,250.37879c0,1.67298 0.37879,3.14867 1.13636,4.42708c0.75758,1.27841 2.13068,1.91761 4.11932,1.91761c0.59975,0 1.27052,-0.13415 2.01231,-0.40246c0.74179,-0.26831 1.41256,-0.57607 2.01231,-0.9233v-9.80114c-0.63131,-0.44192 -1.32576,-0.82071 -2.08333,-1.13636c-0.75758,-0.31566 -1.4678,-0.47348 -2.13068,-0.47348c-1.89394,0 -3.21181,0.70234 -3.9536,2.10701c-0.74179,1.40467 -1.11269,2.83302 -1.11269,4.28504" data-paper-data="{&quot;elementType&quot;:&quot;letter&quot;,&quot;baseline&quot;:50.300000000000004,&quot;baselineProportion&quot;:0.7054698457223001,&quot;fontSize&quot;:100}"></path><path d="M293.98674,252.41477l-6.91288,-8.71212v18.27652h-6.91288v-32.19697h4.54545l10.51136,14.01515c1.60985,-2.30429 3.20391,-4.63226 4.7822,-6.9839c1.57828,-2.35164 3.17235,-4.69539 4.7822,-7.03125h4.40341v32.19697h-7.00758v-17.56629c-0.88384,1.26263 -1.79135,2.53314 -2.72254,3.81155c-0.93119,1.27841 -1.85448,2.54893 -2.76989,3.81155c-0.44192,0.03157 -0.89173,0.0947 -1.34943,0.18939c-0.4577,0.0947 -0.90751,0.15783 -1.34943,0.18939z" data-paper-data="{&quot;elementType&quot;:&quot;letter&quot;,&quot;baseline&quot;:68,&quot;baselineProportion&quot;:1,&quot;fontSize&quot;:100}"></path><path d="M330.30303,238.35227c2.87247,0 5.23201,0.82071 7.0786,2.46212c1.84659,1.64141 2.76989,3.75631 2.76989,6.3447v14.82008h-3.40909l-1.51515,-1.89394c-0.78914,0.69444 -1.75979,1.27841 -2.91193,1.75189c-1.15215,0.47348 -2.32797,0.71023 -3.52746,0.71023c-2.84091,0 -4.94792,-0.70234 -6.32102,-2.10701c-1.37311,-1.40467 -2.05966,-3.24337 -2.05966,-5.5161c0,-2.39899 0.81282,-4.21402 2.43845,-5.44508c1.62563,-1.23106 3.74842,-1.84659 6.36837,-1.84659h3.92992c-0.06313,-0.97854 -0.40246,-1.75189 -1.01799,-2.32008c-0.61553,-0.56818 -1.42835,-0.85227 -2.43845,-0.85227c-0.97854,0 -2.06755,0.14205 -3.26705,0.42614c-1.19949,0.28409 -2.24116,0.63131 -3.125,1.04167l-1.84659,-5.49242c0.97854,-0.56818 2.38321,-1.05745 4.21402,-1.4678c1.83081,-0.41035 3.37753,-0.61553 4.64015,-0.61553zM328.78788,256.96023c0.72601,0 1.4678,-0.16572 2.22538,-0.49716c0.75758,-0.33144 1.48359,-0.81282 2.17803,-1.44413v-2.88826h-3.97727c-0.9154,0 -1.62563,0.26831 -2.13068,0.80492c-0.50505,0.53662 -0.75758,1.16793 -0.75758,1.89394c0,0.56818 0.23674,1.06534 0.71023,1.49148c0.47348,0.42614 1.05745,0.6392 1.75189,0.6392" data-paper-data="{&quot;elementType&quot;:&quot;letter&quot;,&quot;baseline&quot;:49.900000000000006,&quot;baselineProportion&quot;:0.9765166340508806,&quot;fontSize&quot;:100}"></path><path d="M361.64773,262.78409c-2.84091,0 -5.18466,-0.72601 -7.03125,-2.17803c-1.84659,-1.45202 -2.76989,-3.5827 -2.76989,-6.39205v-9.4697h-3.26705v-5.39773h3.26705v-5.68182l6.91288,-1.13636v6.81818h4.64015l1.51515,5.39773h-6.1553v8.42803c0,1.1048 0.28409,2.01231 0.85227,2.72254c0.56818,0.71023 1.38889,1.06534 2.46212,1.06534c0.41035,0 0.85227,-0.06313 1.32576,-0.18939c0.47348,-0.12626 0.94697,-0.29987 1.42045,-0.52083l2.03598,4.92424c-0.53662,0.44192 -1.32576,0.82071 -2.36742,1.13636c-1.04167,0.31566 -1.98864,0.47348 -2.84091,0.47348z" data-paper-data="{&quot;elementType&quot;:&quot;letter&quot;,&quot;baseline&quot;:62.2,&quot;baselineProportion&quot;:0.97339593114241,&quot;fontSize&quot;:100}"></path><path d="M382.67045,239.01515v22.96402h-6.96023v-22.96402zM383.09659,231.96023c0,1.07323 -0.38668,1.98074 -1.16004,2.72254c-0.77336,0.74179 -1.69665,1.11269 -2.76989,1.11269c-1.07323,0 -1.97285,-0.3709 -2.69886,-1.11269c-0.72601,-0.74179 -1.08902,-1.64931 -1.08902,-2.72254c0,-1.07323 0.36301,-1.98864 1.08902,-2.74621c0.72601,-0.75758 1.62563,-1.13636 2.69886,-1.13636c1.07323,0 1.99653,0.37879 2.76989,1.13636c0.77336,0.75758 1.16004,1.67298 1.16004,2.74621" data-paper-data="{&quot;elementType&quot;:&quot;letter&quot;,&quot;baseline&quot;:71.60000000000001,&quot;baselineProportion&quot;:1,&quot;fontSize&quot;:100}"></path><path d="M407.9072,238.16288c3.15657,0 5.40562,0.90751 6.74716,2.72254c1.34154,1.81503 2.01231,4.06408 2.01231,6.74716v14.34659h-6.96023v-14.0625c0,-1.26263 -0.32355,-2.23327 -0.97064,-2.91193c-0.6471,-0.67866 -1.53883,-1.01799 -2.67519,-1.01799c-0.75758,0 -1.60196,0.19729 -2.53314,0.59186c-0.93119,0.39457 -1.77557,0.84438 -2.53314,1.34943v16.05114h-6.96023v-22.96402h3.59848l1.84659,2.32008c1.0101,-0.88384 2.30429,-1.63352 3.88258,-2.24905c1.57828,-0.61553 3.09343,-0.9233 4.54545,-0.9233z" data-paper-data="{&quot;elementType&quot;:&quot;letter&quot;,&quot;baseline&quot;:50.300000000000004,&quot;baselineProportion&quot;:1,&quot;fontSize&quot;:100}"></path><path d="M450,239.0625v22.91667c0,2.96717 -0.98643,5.36616 -2.95928,7.19697c-1.97285,1.83081 -4.99527,2.74621 -9.06723,2.74621c-0.97854,0 -2.41477,-0.22096 -4.30871,-0.66288c-1.89394,-0.44192 -3.48801,-1.1048 -4.7822,-1.98864l2.08333,-4.87689c1.45202,0.69444 2.68308,1.1916 3.69318,1.49148c1.0101,0.29987 2.06755,0.44981 3.17235,0.44981c1.70455,0 2.99874,-0.38668 3.88258,-1.16004c0.88384,-0.77336 1.32576,-1.82292 1.32576,-3.14867v-1.04167c-0.88384,0.47348 -1.83081,0.84438 -2.84091,1.11269c-1.0101,0.26831 -2.00442,0.40246 -2.98295,0.40246c-3.47222,0 -6.10795,-1.15215 -7.9072,-3.45644c-1.79924,-2.30429 -2.69886,-5.17677 -2.69886,-8.61742c0,-3.47222 0.93119,-6.38415 2.79356,-8.7358c1.86237,-2.35164 4.57702,-3.52746 8.14394,-3.52746c1.16793,0 2.44634,0.26042 3.83523,0.78125c1.38889,0.52083 2.58838,1.1916 3.59848,2.01231l1.4678,-1.89394zM433.75947,250.37879c0,1.67298 0.37879,3.14867 1.13636,4.42708c0.75758,1.27841 2.13068,1.91761 4.11932,1.91761c0.59975,0 1.27052,-0.13415 2.01231,-0.40246c0.74179,-0.26831 1.41256,-0.57607 2.01231,-0.9233v-9.80114c-0.63131,-0.44192 -1.32576,-0.82071 -2.08333,-1.13636c-0.75758,-0.31566 -1.4678,-0.47348 -2.13068,-0.47348c-1.89394,0 -3.21181,0.70234 -3.9536,2.10701c-0.74179,1.40467 -1.11269,2.83302 -1.11269,4.28504" data-paper-data="{&quot;elementType&quot;:&quot;letter&quot;,&quot;baseline&quot;:50.300000000000004,&quot;baselineProportion&quot;:0.7054698457223001,&quot;fontSize&quot;:100}"></path></g></g></g></g></g></svg>